# xmcd CD database file
#
# Track frame offsets:
#	150
#	25951
#	37620
#	53444
#	73309
#	87056
#	106985
#	123134
#	142846
#	163242
#	180977
#
# Disc length: 2780 seconds
#
# Revision: 0
# Processed by: cddbd v1.5.2PL0 Copyright (c) Steve Scherf et al.
# Submitted via: NeoAudio 9.9.9
#
DISCID=7f0ada0b
DTITLE=Saffire The Uppity Blues Women - Saffire
DYEAR=1900
DGENRE=Blues
TTITLE0=Middle Aged Blues Boogie
TTITLE1=On the Sunny Side of the Street
TTITLE2=Your Husband's Cheating on Us
TTITLE3=Do Your Duty
TTITLE4=Living With the Blues
TTITLE5=God Bless the Child
TTITLE6=Release Me
TTITLE7=How Can I say I miss You When I can't Get You to Leave
TTITLE8=He's Got Me Going
TTITLE9=San Francisco Bay Blues
TTITLE10=St. Louis Blues
EXTD=
EXTT0=
EXTT1=
EXTT2=
EXTT3=
EXTT4=
EXTT5=
EXTT6=
EXTT7=
EXTT8=
EXTT9=
EXTT10=
PLAYORDER=
